<svg width="128" height="32" viewBox="0 0 128 32" xmlns="http://www.w3.org/2000/svg" role="img" aria-label="Foodly">
  <defs>
    <linearGradient id="brand" x1="0" y1="0" x2="1" y2="1">
      <stop offset="0%" stop-color="#fc8019"/>
      <stop offset="100%" stop-color="#ed6b00"/>
    </linearGradient>
  </defs>
  <!-- Mark -->
  <g>
    <rect x="2" y="6" width="28" height="20" rx="10" fill="url(#brand)"/>
    <circle cx="12" cy="16" r="3" fill="#fff"/>
    <circle cx="20" cy="16" r="3" fill="#fff"/>
  </g>
  <!-- Wordmark (simple, neutral) -->
  <g fill="#111827">
    <path d="M38 10h8c2.6 0 4 .9 5 2.2 1 1.3 1.5 3 1.5 4.8s-.5 3.5-1.5 4.8C50 23.1 48.6 24 46 24h-8V10zm8 11c1.4 0 2.2-.5 2.8-1.4.6-.9.9-2 .9-3.6s-.3-2.7-.9-3.6c-.6-.9-1.4-1.4-2.8-1.4H41v10h5z"/>
    <path d="M58 10h3v14h-3V10z"/>
    <path d="M64 17c0-4.1 2.7-7 6.5-7S77 12.9 77 17s-2.7 7-6.5 7S64 21.1 64 17zm10 0c0-2.6-1.6-4.3-3.5-4.3S67 14.4 67 17s1.6 4.3 3.5 4.3S74 19.6 74 17z"/>
    <path d="M79 10h3l5.2 8.4V10h3v14h-3l-5.2-8.4V24h-3V10z"/>
    <path d="M98 10h10v3h-7v2h6v3h-6v3h7v3H98V10z"/>
  </g>
</svg>
