<svg width="128" height="32" viewBox="0 0 128 32" fill="none" xmlns="http://www.w3.org/2000/svg">
  <defs>
    <linearGradient id="g" x1="0" y1="0" x2="1" y2="1">
      <stop offset="0%" stop-color="#ff5a5f"/>
      <stop offset="100%" stop-color="#ff3b43"/>
    </linearGradient>
  </defs>
  <rect x="2" y="6" width="28" height="20" rx="10" fill="url(#g)"/>
  <circle cx="12" cy="16" r="3" fill="white"/>
  <circle cx="20" cy="16" r="3" fill="white"/>
  <path d="M38 10h6c4 0 6 2 6 6s-2 6-6 6h-6V10zm6 9c2 0 3-1 3-3s-1-3-3-3h-3v6h3z" fill="#1f2937"/>
  <path d="M55 10h3v12h-3V10z" fill="#1f2937"/>
  <path d="M60 16c0-3.6 2.4-6 6-6s6 2.4 6 6-2.4 6-6 6-6-2.4-6-6zm9 0c0-2.1-1.3-3.4-3-3.4s-3 1.3-3 3.4 1.3 3.4 3 3.4 3-1.3 3-3.4z" fill="#1f2937"/>
  <path d="M81 10h3.1l5.2 8.1V10h3v12h-3.1l-5.2-8.1V22H81V10z" fill="#1f2937"/>
  <path d="M101 10h10v3h-7v2h6.2v3H104v1h7v3h-10V10z" fill="#1f2937"/>
</svg>
